# xmcd CD database file
#
# Track frame offsets:
#	150
#	28047
#	43556
#	61366
#	81416
#	92005
#	114877
#	127916
#	137872
#	145342
#	170475
#	184963
#	197818
#
# Disc length: 2878 seconds
#
# Revision: 2
# Processed by: cddbd v1.5.2PL0 Copyright (c) Steve Scherf et al.
# Submitted via: CDex 1.51
#
DISCID=b70b3c0d
DTITLE=Henry Purcell - Ode pour la Sainte CÈCile  (Diego Fasolis, Theatrum Instrumentorum)
DYEAR=1900
DGENRE=Classique
TTITLE0=Symphony
TTITLE1=Hail ! Bright Cecilia
TTITLE2=Hark each Tree
TTITLE3=Tis Nature's Voice
TTITLE4=Soul of the World
TTITLE5=Thou tun's this World
TTITLE6=With that Sublime Celestial Lay
TTITLE7=Wondrous Machine
TTITLE8=The Airy Violin
TTITLE9=In the Vain the Am'rous Flute
TTITLE10=The Fife and all the Harmony of the War
TTITLE11=Let these amongst Themselves Contest
TTITLE12=Hail ! Bright Cecilia
EXTD=
EXTT0=
EXTT1=
EXTT2=
EXTT3=
EXTT4=
EXTT5=
EXTT6=
EXTT7=
EXTT8=
EXTT9=
EXTT10=
EXTT11=
EXTT12=
PLAYORDER=
